<?xml version="1.0" standalone="no"?>
<!DOCTYPE svg PUBLIC "-//W3C//DTD SVG 20010904//EN"
 "http://www.w3.org/TR/2001/REC-SVG-20010904/DTD/svg10.dtd">
<svg version="1.0" xmlns="http://www.w3.org/2000/svg"
 width="1920.000000pt" height="1080.000000pt" viewBox="0 0 1920.000000 1080.000000"
 preserveAspectRatio="xMidYMid meet">

<g transform="translate(0.000000,1080.000000) scale(0.100000,-0.100000)"
fill="#000000" stroke="none">
<path d="M5820 8535 c-120 -22 -228 -82 -331 -184 -99 -99 -156 -182 -244
-360 -81 -161 -130 -287 -161 -407 -23 -93 -44 -131 -64 -119 -5 3 -16 3 -22
-2 -7 -4 -21 -9 -30 -10 -9 -1 -29 -14 -44 -28 -15 -14 -32 -25 -38 -25 -6 0
-22 -12 -35 -25 -13 -14 -27 -25 -32 -25 -5 0 -9 -8 -9 -19 0 -10 -11 -29 -24
-42 -24 -25 -50 -91 -48 -121 0 -10 -4 -18 -9 -18 -6 0 -5 -9 2 -21 8 -16 8
-20 -1 -14 -8 5 -10 -8 -8 -49 2 -31 7 -56 12 -56 4 0 3 -6 -3 -14 -8 -10 -9
-15 -1 -18 6 -2 13 -17 15 -33 2 -17 4 -30 5 -30 1 0 3 -8 5 -18 2 -9 15 -31
29 -48 14 -17 26 -35 26 -40 0 -6 5 -7 10 -4 6 3 14 -5 20 -20 5 -14 17 -28
25 -31 8 -4 15 -12 15 -19 0 -21 119 -75 194 -87 158 -26 325 48 416 184 55
82 73 153 68 263 -7 153 -76 269 -194 326 -42 20 -64 37 -64 48 0 31 59 214
99 308 112 262 229 421 365 495 55 30 69 33 143 33 74 0 85 -3 124 -30 24 -17
57 -50 74 -74 28 -40 30 -48 30 -139 0 -88 -3 -103 -32 -165 -39 -81 -99 -161
-185 -243 -69 -66 -171 -154 -231 -198 l-38 -27 90 -70 c49 -38 95 -69 102
-69 16 0 136 98 232 190 223 212 332 453 298 658 -7 42 -27 106 -43 142 -59
125 -206 237 -333 254 -27 4 -61 8 -75 11 -14 2 -59 -3 -100 -10z m196 -49
c108 -29 193 -101 241 -204 32 -69 36 -117 8 -117 -14 0 -24 14 -40 59 -38
107 -136 194 -243 217 -166 34 -368 -79 -495 -276 -54 -84 -137 -242 -162
-307 -19 -51 -37 -65 -55 -42 -15 17 -9 34 68 189 185 373 430 547 678 481z
m-959 -1228 c16 -81 57 -145 117 -183 45 -27 57 -30 138 -30 48 0 88 -3 88 -7
0 -30 -46 -120 -77 -150 -62 -59 -98 -73 -188 -72 -65 0 -90 5 -134 26 -29 15
-59 25 -65 24 -6 -2 -8 -1 -4 1 4 2 4 11 1 19 -3 7 -9 11 -15 8 -5 -3 -8 1 -6
9 2 9 -1 16 -7 16 -5 0 -12 15 -15 33 -3 18 -10 33 -17 33 -18 0 -26 12 -12
21 8 5 10 3 4 -6 -5 -9 -4 -11 4 -6 6 4 9 11 6 16 -8 13 -13 120 -5 120 13 0
18 49 5 60 -6 5 -15 8 -18 5 -4 -3 -5 -2 -2 2 9 12 36 12 29 1 -4 -7 -2 -8 4
-4 7 4 12 14 12 22 0 8 4 13 9 10 4 -3 13 6 20 21 10 21 9 28 -1 36 -10 7 -9
8 3 4 9 -3 23 0 30 6 8 8 8 5 -1 -8 -9 -11 2 -6 24 12 21 17 44 29 50 27 6 -2
17 -32 23 -66z m-300 -80 c-3 -7 -5 -2 -5 12 0 14 2 19 5 13 2 -7 2 -19 0 -25z
m50 10 c-3 -8 -6 -5 -6 6 -1 11 2 17 5 13 3 -3 4 -12 1 -19z m-17 -125 c0 -21
-3 -24 -9 -14 -5 8 -7 20 -4 28 8 21 13 15 13 -14z m0 -155 c0 -19 -2 -20 -10
-8 -13 19 -13 30 0 30 6 0 10 -10 10 -22z"/>
<path d="M3350 7910 c0 -5 5 -10 11 -10 5 0 7 5 4 10 -3 6 -8 10 -11 10 -2 0
-4 -4 -4 -10z"/>
<path d="M3320 7870 c-6 -11 -8 -20 -6 -20 3 0 10 9 16 20 6 11 8 20 6 20 -3
0 -10 -9 -16 -20z"/>
<path d="M3146 7641 c-13 -14 -14 -21 -5 -27 7 -4 10 -3 5 4 -3 6 2 15 11 21
10 5 15 12 12 15 -3 4 -14 -2 -23 -13z"/>
<path d="M1905 7510 c-3 -11 -3 -25 1 -31 4 -8 3 -9 -4 -5 -7 4 -12 2 -12 -3
0 -6 5 -11 10 -11 6 0 10 -7 10 -16 0 -8 -4 -13 -9 -10 -14 9 -21 -20 -8 -33
8 -8 7 -14 -2 -23 -11 -11 -13 -10 -8 5 4 11 3 16 -3 12 -6 -3 -10 -15 -10
-26 0 -11 4 -18 8 -15 5 3 6 -8 4 -24 -2 -17 -9 -27 -14 -24 -6 4 -5 -2 1 -14
6 -11 11 -27 10 -34 0 -7 -4 -4 -9 7 -5 11 -9 14 -11 8 -1 -7 -2 -16 -3 -20
-1 -5 -6 -37 -11 -73 -4 -36 -10 -76 -12 -90 -3 -14 -6 -34 -8 -45 -1 -11 -6
-28 -10 -37 -4 -9 -4 -21 -1 -27 4 -5 2 -12 -2 -15 -8 -5 -13 -41 -16 -118 -1
-14 -4 -24 -8 -21 -10 5 -10 -11 -1 -21 13 -13 11 -36 -4 -36 -21 0 -11 -23
18 -37 41 -20 77 -23 83 -6 5 12 12 10 38 -12 20 -17 33 -22 38 -15 4 7 18 6
44 -5 24 -10 42 -12 53 -6 11 6 21 4 31 -6 10 -9 18 -11 25 -4 10 10 37 4 50
-13 5 -6 5 -1 2 12 -4 13 -2 22 4 22 6 0 11 5 11 10 0 6 -9 10 -20 10 -13 0
-20 6 -19 18 0 10 3 12 6 5 2 -7 10 -13 17 -13 13 0 40 105 31 120 -3 6 -3 16
2 23 10 16 13 34 15 84 1 23 4 41 7 39 3 -2 7 21 7 51 1 31 7 59 13 63 9 5 9
19 2 49 -7 34 -6 43 5 48 8 3 11 9 8 14 -3 5 -1 9 4 9 5 0 8 15 7 34 0 19 3
32 7 30 4 -3 9 16 10 43 1 47 4 73 8 83 10 27 4 48 -14 48 -12 0 -85 14 -163
30 -87 17 -146 25 -152 19 -5 -5 -11 -4 -15 2 -11 18 -34 13 -41 -9z m72 -82
c-3 -7 -5 -2 -5 12 0 14 2 19 5 13 2 -7 2 -19 0 -25z m243 12 c-19 -13 -30
-13 -30 0 0 6 10 10 23 10 18 0 19 -2 7 -10z m-300 -94 c0 -3 -4 -8 -10 -11
-5 -3 -10 -1 -10 4 0 6 5 11 10 11 6 0 10 -2 10 -4z m307 -58 c-3 -8 -6 -5 -6
6 -1 11 2 17 5 13 3 -3 4 -12 1 -19z m3 -63 c0 -8 -4 -15 -10 -15 -5 0 -7 7
-4 15 4 8 8 15 10 15 2 0 4 -7 4 -15z m-357 -10 c-3 -9 -8 -14 -10 -11 -3 3
-2 9 2 15 9 16 15 13 8 -4z m-12 -146 c-10 -23 -10 -22 -7 6 6 39 7 42 12 29
3 -6 0 -22 -5 -35z m326 19 c-3 -8 -6 -5 -6 6 -1 11 2 17 5 13 3 -3 4 -12 1
-19z m4 -125 c-8 -15 -10 -15 -11 -2 0 17 10 32 18 25 2 -3 -1 -13 -7 -23z"/>
<path d="M2626 6954 c-9 -24 -2 -26 12 -4 7 11 8 20 3 20 -5 0 -12 -7 -15 -16z"/>
<path d="M2443 6728 c-10 -18 -13 -39 -3 -33 8 5 21 45 15 45 -2 0 -7 -6 -12
-12z"/>
<path d="M2405 6681 c-3 -5 -2 -12 3 -15 5 -3 9 1 9 9 0 17 -3 19 -12 6z"/>
<path d="M6525 5729 c-4 -6 -5 -12 -2 -15 2 -3 7 2 10 11 7 17 1 20 -8 4z"/>
<path d="M6201 5316 c-9 -11 -9 -16 1 -22 7 -4 10 -4 6 1 -4 4 -3 14 3 22 6 7
9 13 6 13 -2 0 -10 -6 -16 -14z"/>
<path d="M2025 5280 c3 -5 8 -10 11 -10 2 0 4 5 4 10 0 6 -5 10 -11 10 -5 0
-7 -4 -4 -10z"/>
<path d="M6168 5266 c-20 -15 -23 -26 -8 -26 5 0 14 9 20 20 12 23 11 24 -12
6z"/>
<path d="M2070 5253 c0 -6 8 -17 18 -24 16 -13 16 -13 2 6 -8 11 -16 22 -17
24 -2 2 -3 0 -3 -6z"/>
<path d="M6011 5072 c-17 -31 -13 -40 5 -14 9 13 14 26 11 29 -3 2 -10 -4 -16
-15z"/>
<path d="M5983 5033 c4 -3 1 -13 -6 -22 -11 -14 -10 -14 5 -2 16 12 16 31 1
31 -4 0 -3 -3 0 -7z"/>
<path d="M2530 4896 c0 -2 7 -9 15 -16 13 -11 14 -10 9 4 -5 14 -24 23 -24 12z"/>
<path d="M5840 4834 c-6 -14 -14 -22 -20 -19 -5 3 -10 4 -10 1 0 -2 -3 -13 -7
-23 -4 -11 6 -6 25 14 18 18 32 37 32 43 0 18 -10 10 -20 -16z"/>
<path d="M2730 4741 c6 -12 15 -21 20 -21 18 0 11 19 -11 30 -19 11 -20 10 -9
-9z"/>
<path d="M5655 4600 c3 -5 8 -10 11 -10 2 0 4 5 4 10 0 6 -5 10 -11 10 -5 0
-7 -4 -4 -10z"/>
<path d="M2984 4542 c10 -12 23 -19 28 -16 11 7 11 7 -22 24 -25 13 -25 13 -6
-8z"/>
<path d="M5605 4540 c-3 -5 -1 -10 4 -10 6 0 11 5 11 10 0 6 -2 10 -4 10 -3 0
-8 -4 -11 -10z"/>
<path d="M3025 4510 c3 -5 8 -10 11 -10 2 0 4 5 4 10 0 6 -5 10 -11 10 -5 0
-7 -4 -4 -10z"/>
<path d="M6212 4414 c-12 -8 -22 -12 -22 -7 0 4 -7 -1 -15 -11 -8 -11 -26 -20
-40 -22 -41 -4 -95 -42 -89 -62 4 -10 2 -13 -3 -7 -12 15 -48 11 -91 -11 -40
-21 -53 -34 -46 -46 3 -4 -2 -5 -11 -1 -13 5 -14 7 -3 14 27 18 -9 7 -42 -12
-19 -11 -27 -18 -17 -15 11 4 16 2 11 -5 -3 -6 -15 -9 -25 -6 -11 3 -19 1 -19
-5 0 -5 -4 -7 -9 -4 -11 7 -112 -42 -127 -62 -6 -8 -16 -12 -21 -9 -13 8 -73
-21 -73 -34 0 -6 -4 -7 -10 -4 -5 3 -10 1 -10 -5 0 -7 -6 -10 -14 -7 -14 6
-15 -3 -3 -33 3 -8 11 -32 17 -53 7 -23 16 -35 23 -30 7 3 9 3 5 -2 -4 -4 -2
-15 5 -23 9 -13 9 -14 -1 -8 -6 4 -3 -9 9 -28 12 -20 18 -36 15 -36 -4 0 2
-10 14 -22 11 -12 20 -27 20 -32 0 -6 5 -4 10 4 6 9 10 10 10 3 0 -6 -4 -14
-9 -17 -11 -7 9 -66 22 -66 4 0 5 -4 2 -10 -7 -12 27 -13 41 -2 5 5 30 17 57
26 26 10 45 22 41 27 -3 5 2 9 10 9 8 0 27 5 43 11 22 8 25 12 13 20 -11 8 -9
9 9 4 16 -5 21 -4 17 4 -5 7 -1 9 9 5 8 -4 21 -1 29 5 7 6 16 8 19 4 4 -3 9 2
13 11 3 9 10 13 15 10 5 -3 9 0 9 6 0 6 4 9 8 6 5 -3 20 1 34 8 14 8 42 19 62
26 28 9 34 15 27 24 -13 15 -4 26 18 25 12 0 11 -3 -4 -9 -19 -8 -19 -9 -1 -9
11 -1 28 7 39 17 11 9 17 11 13 5 -8 -14 6 -18 18 -5 4 4 13 7 19 7 7 0 11 10
11 22 -1 13 3 20 7 17 5 -3 7 -10 4 -15 -4 -5 1 -9 11 -9 11 0 15 6 11 19 -4
17 -2 18 15 8 16 -10 22 -8 39 12 10 13 19 18 19 11 0 -10 3 -10 15 0 8 7 15
9 15 5 0 -4 6 -2 14 4 20 17 15 34 -53 176 -32 68 -62 133 -66 145 -3 11 -11
18 -16 15 -5 -3 -6 0 -3 8 9 25 -19 38 -44 21z m-381 -232 c-7 -2 -18 1 -23 6
-8 8 -4 9 13 5 13 -4 18 -8 10 -11z m564 -120 c-3 -3 -11 0 -18 7 -9 10 -8 11
6 5 10 -3 15 -9 12 -12z m-88 -24 c-3 -8 -6 -5 -6 6 -1 11 2 17 5 13 3 -3 4
-12 1 -19z m-177 -36 c0 -15 -2 -15 -10 -2 -13 20 -13 33 0 25 6 -3 10 -14 10
-23z m-15 -62 c3 -5 -1 -10 -10 -10 -9 0 -13 5 -10 10 3 6 8 10 10 10 2 0 7
-4 10 -10z m-65 -20 c0 -5 -2 -10 -4 -10 -3 0 -8 5 -11 10 -3 6 -1 10 4 10 6
0 11 -4 11 -10z m-355 -40 c-3 -5 -12 -7 -20 -3 -21 7 -19 13 6 13 11 0 18 -4
14 -10z m157 -32 c-6 -6 -18 -7 -29 -3 -16 8 -16 9 5 12 12 3 22 10 23 16 0 8
3 7 6 -1 3 -8 1 -18 -5 -24z m-162 -68 c0 -5 -2 -10 -4 -10 -3 0 -8 5 -11 10
-3 6 -1 10 4 10 6 0 11 -4 11 -10z"/>
<path d="M3195 4380 c10 -11 20 -20 22 -20 2 0 -2 9 -9 20 -7 11 -17 20 -22
20 -5 0 -1 -9 9 -20z"/>
<path d="M3233 4357 c0 -8 6 -14 14 -14 9 0 10 4 2 14 -6 7 -12 13 -14 13 -1
0 -2 -6 -2 -13z"/>
<path d="M5460 4350 c-6 -11 -7 -20 -2 -20 6 0 12 9 15 20 3 11 3 20 1 20 -2
0 -8 -9 -14 -20z"/>
<path d="M3440 4192 c0 -4 15 -13 33 -20 l32 -12 -25 20 c-27 21 -40 25 -40
12z"/>
<path d="M3660 4026 c0 -2 7 -9 15 -16 13 -11 14 -10 9 4 -5 14 -24 23 -24 12z"/>
<path d="M3920 3833 c0 -9 40 -36 45 -31 2 2 -8 11 -21 21 -13 10 -24 14 -24
10z"/>
<path d="M2524 3653 c-53 -71 -69 -100 -61 -108 6 -7 19 -10 28 -8 11 3 19 -4
23 -22 4 -14 11 -23 16 -20 6 3 10 1 10 -5 0 -6 4 -9 9 -6 5 3 11 -1 15 -9 3
-8 12 -15 20 -15 8 0 18 -5 22 -12 5 -7 2 -8 -7 -3 -8 5 -11 4 -6 -1 5 -5 12
-9 15 -9 4 -1 17 -6 28 -13 12 -6 25 -8 30 -4 5 4 2 -2 -6 -12 -10 -13 -10
-17 -2 -12 7 4 15 1 18 -8 3 -9 12 -16 19 -16 7 0 15 -3 17 -8 7 -17 60 -50
73 -46 8 3 19 -5 26 -18 14 -27 30 -39 45 -34 6 2 11 -2 11 -10 0 -7 -4 -11
-9 -8 -4 3 -8 3 -8 0 0 -6 55 -36 65 -36 3 0 3 5 0 10 -3 6 1 10 11 10 13 0
14 -3 4 -15 -12 -15 -6 -35 12 -35 15 0 58 -36 51 -44 -3 -3 1 -6 9 -6 8 0 26
-10 39 -23 39 -37 119 -99 119 -92 0 4 7 -1 16 -10 9 -9 23 -14 30 -11 8 3 13
0 11 -6 -1 -7 4 -13 11 -14 26 -3 27 -5 12 -14 -13 -8 -12 -10 3 -10 10 0 15
-4 12 -10 -3 -5 -1 -11 4 -11 6 -1 16 -3 21 -4 6 -1 15 -3 21 -4 5 0 7 -5 4
-11 -3 -5 1 -10 10 -10 10 0 13 5 9 12 -4 7 -3 8 4 4 6 -4 8 -14 5 -23 -4 -10
-2 -14 5 -9 6 3 13 -3 17 -14 3 -11 10 -20 14 -20 4 0 20 -13 37 -28 41 -39
80 -62 104 -62 12 0 18 -4 15 -10 -3 -5 -2 -10 2 -10 5 0 13 -10 18 -21 6 -12
14 -20 18 -18 5 2 13 -4 18 -13 6 -10 19 -18 29 -18 11 0 20 -7 20 -15 0 -8 4
-15 9 -15 5 0 19 -11 32 -25 13 -13 29 -25 34 -25 6 0 17 -9 25 -19 7 -11 17
-18 21 -16 4 3 12 -2 19 -10 7 -8 18 -15 24 -15 6 0 17 -9 24 -21 8 -13 19
-18 29 -15 11 5 14 2 9 -10 -5 -13 -4 -14 7 -6 14 12 27 6 27 -12 0 -6 -5 -4
-11 4 -9 13 -10 13 -6 0 2 -10 14 -14 32 -13 27 2 27 2 9 -13 -12 -10 -14 -14
-4 -11 8 2 23 -6 32 -17 l18 -21 20 24 c22 26 27 46 8 35 -8 -4 -10 -3 -5 2 5
5 14 9 20 9 6 0 21 17 33 38 12 21 25 39 30 40 5 1 7 8 6 16 -2 7 1 10 7 6 7
-4 8 0 4 11 -5 13 -3 16 9 11 23 -8 30 17 12 40 -9 10 -13 12 -9 6 3 -7 1 -13
-5 -13 -6 0 -15 10 -21 23 -9 20 -93 89 -94 77 -1 -3 -14 9 -31 25 -34 34 -99
85 -110 85 -4 0 -17 12 -30 26 -13 14 -29 22 -34 19 -6 -4 -9 -1 -8 6 2 7 -2
13 -8 14 -7 0 -22 11 -34 25 -12 14 -18 19 -14 11 4 -8 -12 5 -36 28 -23 22
-46 41 -50 41 -5 0 -16 8 -26 18 -10 9 -21 17 -25 17 -4 0 -19 12 -34 27 -15
15 -31 25 -36 22 -5 -3 -9 2 -9 11 0 11 -5 15 -15 11 -8 -3 -14 -2 -12 3 3 10
-57 61 -72 61 -6 0 -11 4 -11 10 0 5 -7 7 -15 4 -10 -4 -13 -2 -10 8 4 9 -4
19 -22 27 -15 7 -33 21 -41 32 -8 11 -20 18 -27 15 -7 -2 -15 4 -18 15 -3 10
-13 22 -24 26 -10 4 -24 13 -31 20 -8 7 -19 10 -25 6 -7 -3 -9 -3 -5 2 9 10
-17 35 -37 35 -9 0 -14 4 -11 9 3 4 -10 17 -29 27 -19 10 -35 24 -35 31 0 7
-6 13 -13 13 -8 0 -24 11 -36 24 -13 14 -36 30 -52 36 -15 7 -27 17 -26 23 1
6 -5 11 -14 12 -10 0 -29 13 -43 28 -14 15 -26 25 -26 21 0 -4 -10 5 -21 20
-12 15 -23 25 -26 22 -3 -2 -13 3 -22 12 -36 34 -66 56 -79 58 -7 2 -21 12
-31 23 -36 41 -61 28 -137 -76z m379 -397 c4 -10 1 -13 -8 -9 -8 3 -12 9 -9
14 7 12 11 11 17 -5z m127 -96 c0 -5 -4 -10 -9 -10 -6 0 -13 5 -16 10 -3 6 1
10 9 10 9 0 16 -4 16 -10z m34 -36 c3 -8 2 -12 -4 -9 -6 3 -10 10 -10 16 0 14
7 11 14 -7z m44 -45 c-6 -4 -19 -2 -29 4 -12 8 -14 14 -7 18 6 4 19 2 29 -4
12 -8 14 -14 7 -18z m132 -49 c0 -5 -8 -10 -17 -10 -15 0 -16 2 -3 10 19 12
20 12 20 0z m270 -188 c0 -8 -1 -13 -3 -11 -1 2 -9 12 -16 22 -12 15 -12 17 3
11 9 -3 16 -13 16 -22z m-95 -2 c3 -6 -1 -7 -9 -4 -18 7 -21 14 -7 14 6 0 13
-4 16 -10z m39 -5 c-4 -8 -11 -12 -16 -9 -6 4 -5 10 3 15 19 12 19 11 13 -6z
m42 -43 c-9 -8 -26 10 -26 26 1 15 2 15 15 -2 8 -11 13 -21 11 -24z m182 -157
c-3 -3 -9 2 -12 12 -6 14 -5 15 5 6 7 -7 10 -15 7 -18z m112 5 c0 -5 -2 -10
-4 -10 -3 0 -8 5 -11 10 -3 6 -1 10 4 10 6 0 11 -4 11 -10z m-57 -24 c3 -7 -1
-13 -9 -13 -7 0 -11 4 -8 9 3 4 0 8 -5 8 -6 0 -11 4 -11 10 0 13 27 2 33 -14z
m45 -41 c-2 -15 -6 -21 -11 -16 -6 6 -7 17 -4 25 9 24 17 19 15 -9z m262 21
c0 -3 -4 -8 -10 -11 -5 -3 -10 -1 -10 4 0 6 5 11 10 11 6 0 10 -2 10 -4z m-16
-101 c-4 -8 -11 -15 -16 -15 -6 0 -5 6 2 15 7 8 14 15 16 15 2 0 1 -7 -2 -15z"/>
<path d="M4140 3660 c0 -6 7 -13 15 -17 24 -9 27 1 5 15 -13 8 -20 8 -20 2z"/>
<path d="M4180 3626 c0 -2 7 -9 15 -16 9 -7 15 -8 15 -2 0 5 -7 12 -15 16 -8
3 -15 4 -15 2z"/>
<path d="M4380 3470 c0 -5 5 -10 10 -10 6 0 10 5 10 10 0 6 -4 10 -10 10 -5 0
-10 -4 -10 -10z"/>
<path d="M4430 3426 c0 -2 7 -6 15 -10 8 -3 15 -1 15 4 0 6 -7 10 -15 10 -8 0
-15 -2 -15 -4z"/>
</g>
</svg>
